<svg width="99" height="98" viewBox="0 0 99 98" fill="none" xmlns="http://www.w3.org/2000/svg">
<path d="M1.68828 48.96C1.68828 22.763 22.9251 1.52617 49.1221 1.52617C75.3191 1.52617 96.5559 22.763 96.5559 48.96C96.5559 75.157 75.3191 96.3938 49.1221 96.3938C22.9251 96.3938 1.68828 75.157 1.68828 48.96Z" fill="#FDF7FF"/>
<path d="M1.68828 48.96C1.68828 22.763 22.9251 1.52617 49.1221 1.52617C75.3191 1.52617 96.5559 22.763 96.5559 48.96C96.5559 75.157 75.3191 96.3938 49.1221 96.3938C22.9251 96.3938 1.68828 75.157 1.68828 48.96Z" stroke="#E2A7F7" stroke-width="3.05235"/>
<path d="M63.3663 48.9595H34.8777" stroke="#0A0A0B" stroke-width="4.57852" stroke-linecap="round" stroke-linejoin="round"/>
<path d="M49.122 63.2044L34.8777 48.9601L49.122 34.7158" stroke="#0A0A0B" stroke-width="4.57852" stroke-linecap="round" stroke-linejoin="round"/>
</svg>
