<svg width="98" height="98" viewBox="0 0 98 98" fill="none" xmlns="http://www.w3.org/2000/svg">
<path d="M1.61203 48.96C1.61203 22.7651 22.8472 1.53 49.042 1.53C75.2369 1.53 96.472 22.7651 96.472 48.96C96.472 75.1549 75.2369 96.39 49.042 96.39C22.8472 96.39 1.61203 75.1549 1.61203 48.96Z" fill="#FDF7FF"/>
<path d="M1.61203 48.96C1.61203 22.7651 22.8472 1.53 49.042 1.53C75.2369 1.53 96.472 22.7651 96.472 48.96C96.472 75.1549 75.2369 96.39 49.042 96.39C22.8472 96.39 1.61203 75.1549 1.61203 48.96Z" stroke="#E2A7F7" stroke-width="3.06"/>
<path d="M34.762 48.96H63.322" stroke="#0A0A0B" stroke-width="4.59" stroke-linecap="round" stroke-linejoin="round"/>
<path d="M49.042 34.6807L63.322 48.9607L49.042 63.2407" stroke="#0A0A0B" stroke-width="4.59" stroke-linecap="round" stroke-linejoin="round"/>
</svg>
