<svg width="247" height="20" viewBox="0 0 247 20" fill="none" xmlns="http://www.w3.org/2000/svg">
<path d="M1.162 15.5V5.7H5.95C7.182 5.7 8.106 5.93333 8.722 6.4C9.34733 6.86667 9.66 7.48267 9.66 8.248C9.66 8.76133 9.534 9.20933 9.282 9.592C9.03 9.96533 8.68467 10.2547 8.246 10.46C7.80733 10.6653 7.30333 10.768 6.734 10.768L7 10.194C7.616 10.194 8.162 10.2967 8.638 10.502C9.114 10.698 9.48267 10.992 9.744 11.384C10.0147 11.776 10.15 12.2567 10.15 12.826C10.15 13.666 9.81867 14.324 9.156 14.8C8.49333 15.2667 7.518 15.5 6.23 15.5H1.162ZM3.416 13.792H6.062C6.65 13.792 7.09333 13.6987 7.392 13.512C7.7 13.316 7.854 13.008 7.854 12.588C7.854 12.1773 7.7 11.874 7.392 11.678C7.09333 11.4727 6.65 11.37 6.062 11.37H3.248V9.718H5.67C6.22067 9.718 6.64067 9.62467 6.93 9.438C7.22867 9.242 7.378 8.948 7.378 8.556C7.378 8.17333 7.22867 7.88867 6.93 7.702C6.64067 7.506 6.22067 7.408 5.67 7.408H3.416V13.792ZM15.4511 15.612C14.5924 15.612 13.8364 15.444 13.1831 15.108C12.5391 14.772 12.0397 14.3147 11.6851 13.736C11.3304 13.148 11.1531 12.4807 11.1531 11.734C11.1531 10.978 11.3257 10.3107 11.6711 9.732C12.0257 9.144 12.5064 8.68667 13.1131 8.36C13.7197 8.024 14.4057 7.856 15.1711 7.856C15.9084 7.856 16.5711 8.01467 17.1591 8.332C17.7564 8.64 18.2277 9.088 18.5731 9.676C18.9184 10.2547 19.0911 10.95 19.0911 11.762C19.0911 11.846 19.0864 11.944 19.0771 12.056C19.0677 12.1587 19.0584 12.2567 19.0491 12.35H12.9311V11.076H17.9011L17.0611 11.454C17.0611 11.062 16.9817 10.7213 16.8231 10.432C16.6644 10.1427 16.4451 9.91867 16.1651 9.76C15.8851 9.592 15.5584 9.508 15.1851 9.508C14.8117 9.508 14.4804 9.592 14.1911 9.76C13.9111 9.91867 13.6917 10.1473 13.5331 10.446C13.3744 10.7353 13.2951 11.0807 13.2951 11.482V11.818C13.2951 12.2287 13.3837 12.5927 13.5611 12.91C13.7477 13.218 14.0044 13.456 14.3311 13.624C14.6671 13.7827 15.0591 13.862 15.5071 13.862C15.9084 13.862 16.2584 13.8013 16.5571 13.68C16.8651 13.5587 17.1451 13.3767 17.3971 13.134L18.5591 14.394C18.2137 14.786 17.7797 15.0893 17.2571 15.304C16.7344 15.5093 16.1324 15.612 15.4511 15.612ZM24.1851 15.612C23.3731 15.612 22.6498 15.4487 22.0151 15.122C21.3804 14.786 20.8811 14.324 20.5171 13.736C20.1624 13.148 19.9851 12.4807 19.9851 11.734C19.9851 10.978 20.1624 10.3107 20.5171 9.732C20.8811 9.144 21.3804 8.68667 22.0151 8.36C22.6498 8.024 23.3731 7.856 24.1851 7.856C24.9784 7.856 25.6691 8.024 26.2571 8.36C26.8451 8.68667 27.2791 9.158 27.5591 9.774L25.8651 10.684C25.6691 10.3293 25.4218 10.068 25.1231 9.9C24.8338 9.732 24.5164 9.648 24.1711 9.648C23.7978 9.648 23.4618 9.732 23.1631 9.9C22.8644 10.068 22.6264 10.306 22.4491 10.614C22.2811 10.922 22.1971 11.2953 22.1971 11.734C22.1971 12.1727 22.2811 12.546 22.4491 12.854C22.6264 13.162 22.8644 13.4 23.1631 13.568C23.4618 13.736 23.7978 13.82 24.1711 13.82C24.5164 13.82 24.8338 13.7407 25.1231 13.582C25.4218 13.414 25.6691 13.148 25.8651 12.784L27.5591 13.708C27.2791 14.3147 26.8451 14.786 26.2571 15.122C25.6691 15.4487 24.9784 15.612 24.1851 15.612ZM32.3049 15.612C31.5022 15.612 30.7882 15.444 30.1629 15.108C29.5469 14.772 29.0569 14.3147 28.6929 13.736C28.3382 13.148 28.1609 12.4807 28.1609 11.734C28.1609 10.978 28.3382 10.3107 28.6929 9.732C29.0569 9.144 29.5469 8.68667 30.1629 8.36C30.7882 8.024 31.5022 7.856 32.3049 7.856C33.0982 7.856 33.8076 8.024 34.4329 8.36C35.0582 8.68667 35.5482 9.13933 35.9029 9.718C36.2576 10.2967 36.4349 10.9687 36.4349 11.734C36.4349 12.4807 36.2576 13.148 35.9029 13.736C35.5482 14.3147 35.0582 14.772 34.4329 15.108C33.8076 15.444 33.0982 15.612 32.3049 15.612ZM32.3049 13.82C32.6689 13.82 32.9956 13.736 33.2849 13.568C33.5742 13.4 33.8029 13.162 33.9709 12.854C34.1389 12.5367 34.2229 12.1633 34.2229 11.734C34.2229 11.2953 34.1389 10.922 33.9709 10.614C33.8029 10.306 33.5742 10.068 33.2849 9.9C32.9956 9.732 32.6689 9.648 32.3049 9.648C31.9409 9.648 31.6142 9.732 31.3249 9.9C31.0356 10.068 30.8022 10.306 30.6249 10.614C30.4569 10.922 30.3729 11.2953 30.3729 11.734C30.3729 12.1633 30.4569 12.5367 30.6249 12.854C30.8022 13.162 31.0356 13.4 31.3249 13.568C31.6142 13.736 31.9409 13.82 32.3049 13.82ZM47.5407 7.856C48.1381 7.856 48.6654 7.97733 49.1227 8.22C49.5894 8.45333 49.9534 8.81733 50.2147 9.312C50.4854 9.79733 50.6207 10.4227 50.6207 11.188V15.5H48.4367V11.524C48.4367 10.9173 48.3107 10.4693 48.0587 10.18C47.8067 9.89067 47.4521 9.746 46.9947 9.746C46.6774 9.746 46.3927 9.82067 46.1407 9.97C45.8887 10.11 45.6927 10.3247 45.5527 10.614C45.4127 10.9033 45.3427 11.272 45.3427 11.72V15.5H43.1587V11.524C43.1587 10.9173 43.0327 10.4693 42.7807 10.18C42.5381 9.89067 42.1881 9.746 41.7307 9.746C41.4134 9.746 41.1287 9.82067 40.8767 9.97C40.6247 10.11 40.4287 10.3247 40.2887 10.614C40.1487 10.9033 40.0787 11.272 40.0787 11.72V15.5H37.8947V7.968H39.9807V10.026L39.5887 9.424C39.8501 8.91067 40.2187 8.52333 40.6947 8.262C41.1801 7.99133 41.7307 7.856 42.3467 7.856C43.0374 7.856 43.6394 8.03333 44.1527 8.388C44.6754 8.73333 45.0207 9.26533 45.1887 9.984L44.4187 9.774C44.6707 9.186 45.0721 8.71933 45.6227 8.374C46.1827 8.02867 46.8221 7.856 47.5407 7.856ZM56.371 15.612C55.5123 15.612 54.7563 15.444 54.103 15.108C53.459 14.772 52.9597 14.3147 52.605 13.736C52.2503 13.148 52.073 12.4807 52.073 11.734C52.073 10.978 52.2457 10.3107 52.591 9.732C52.9457 9.144 53.4263 8.68667 54.033 8.36C54.6397 8.024 55.3257 7.856 56.091 7.856C56.8283 7.856 57.491 8.01467 58.079 8.332C58.6763 8.64 59.1477 9.088 59.493 9.676C59.8383 10.2547 60.011 10.95 60.011 11.762C60.011 11.846 60.0063 11.944 59.997 12.056C59.9877 12.1587 59.9783 12.2567 59.969 12.35H53.851V11.076H58.821L57.981 11.454C57.981 11.062 57.9017 10.7213 57.743 10.432C57.5843 10.1427 57.365 9.91867 57.085 9.76C56.805 9.592 56.4783 9.508 56.105 9.508C55.7317 9.508 55.4003 9.592 55.111 9.76C54.831 9.91867 54.6117 10.1473 54.453 10.446C54.2943 10.7353 54.215 11.0807 54.215 11.482V11.818C54.215 12.2287 54.3037 12.5927 54.481 12.91C54.6677 13.218 54.9243 13.456 55.251 13.624C55.587 13.7827 55.979 13.862 56.427 13.862C56.8283 13.862 57.1783 13.8013 57.477 13.68C57.785 13.5587 58.065 13.3767 58.317 13.134L59.479 14.394C59.1337 14.786 58.6997 15.0893 58.177 15.304C57.6543 15.5093 57.0523 15.612 56.371 15.612ZM70.0499 15.5V14.03L69.9099 13.708V11.076C69.9099 10.6093 69.7652 10.2453 69.4759 9.984C69.1959 9.72267 68.7619 9.592 68.1739 9.592C67.7725 9.592 67.3759 9.65733 66.9839 9.788C66.6012 9.90933 66.2745 10.0773 66.0039 10.292L65.2199 8.766C65.6305 8.47667 66.1252 8.25267 66.7039 8.094C67.2825 7.93533 67.8705 7.856 68.4679 7.856C69.6159 7.856 70.5072 8.12667 71.1419 8.668C71.7765 9.20933 72.0939 10.054 72.0939 11.202V15.5H70.0499ZM67.7539 15.612C67.1659 15.612 66.6619 15.514 66.2419 15.318C65.8219 15.1127 65.4999 14.8373 65.2759 14.492C65.0519 14.1467 64.9399 13.7593 64.9399 13.33C64.9399 12.882 65.0472 12.49 65.2619 12.154C65.4859 11.818 65.8359 11.5567 66.3119 11.37C66.7879 11.174 67.4085 11.076 68.1739 11.076H70.1759V12.35H68.4119C67.8985 12.35 67.5439 12.434 67.3479 12.602C67.1612 12.77 67.0679 12.98 67.0679 13.232C67.0679 13.512 67.1752 13.736 67.3899 13.904C67.6139 14.0627 67.9172 14.142 68.2999 14.142C68.6639 14.142 68.9905 14.058 69.2799 13.89C69.5692 13.7127 69.7792 13.456 69.9099 13.12L70.2459 14.128C70.0872 14.6133 69.7979 14.982 69.3779 15.234C68.9579 15.486 68.4165 15.612 67.7539 15.612ZM81.6753 15.612C80.8633 15.612 80.14 15.4487 79.5053 15.122C78.8707 14.786 78.3713 14.324 78.0073 13.736C77.6527 13.148 77.4753 12.4807 77.4753 11.734C77.4753 10.978 77.6527 10.3107 78.0073 9.732C78.3713 9.144 78.8707 8.68667 79.5053 8.36C80.14 8.024 80.8633 7.856 81.6753 7.856C82.4687 7.856 83.1593 8.024 83.7473 8.36C84.3353 8.68667 84.7693 9.158 85.0493 9.774L83.3553 10.684C83.1593 10.3293 82.912 10.068 82.6133 9.9C82.324 9.732 82.0067 9.648 81.6613 9.648C81.288 9.648 80.952 9.732 80.6533 9.9C80.3547 10.068 80.1167 10.306 79.9393 10.614C79.7713 10.922 79.6873 11.2953 79.6873 11.734C79.6873 12.1727 79.7713 12.546 79.9393 12.854C80.1167 13.162 80.3547 13.4 80.6533 13.568C80.952 13.736 81.288 13.82 81.6613 13.82C82.0067 13.82 82.324 13.7407 82.6133 13.582C82.912 13.414 83.1593 13.148 83.3553 12.784L85.0493 13.708C84.7693 14.3147 84.3353 14.786 83.7473 15.122C83.1593 15.4487 82.4687 15.612 81.6753 15.612ZM89.7951 15.612C88.9925 15.612 88.2785 15.444 87.6531 15.108C87.0371 14.772 86.5471 14.3147 86.1831 13.736C85.8285 13.148 85.6511 12.4807 85.6511 11.734C85.6511 10.978 85.8285 10.3107 86.1831 9.732C86.5471 9.144 87.0371 8.68667 87.6531 8.36C88.2785 8.024 88.9925 7.856 89.7951 7.856C90.5885 7.856 91.2978 8.024 91.9231 8.36C92.5485 8.68667 93.0385 9.13933 93.3931 9.718C93.7478 10.2967 93.9251 10.9687 93.9251 11.734C93.9251 12.4807 93.7478 13.148 93.3931 13.736C93.0385 14.3147 92.5485 14.772 91.9231 15.108C91.2978 15.444 90.5885 15.612 89.7951 15.612ZM89.7951 13.82C90.1591 13.82 90.4858 13.736 90.7751 13.568C91.0645 13.4 91.2931 13.162 91.4611 12.854C91.6291 12.5367 91.7131 12.1633 91.7131 11.734C91.7131 11.2953 91.6291 10.922 91.4611 10.614C91.2931 10.306 91.0645 10.068 90.7751 9.9C90.4858 9.732 90.1591 9.648 89.7951 9.648C89.4311 9.648 89.1045 9.732 88.8151 9.9C88.5258 10.068 88.2925 10.306 88.1151 10.614C87.9471 10.922 87.8631 11.2953 87.8631 11.734C87.8631 12.1633 87.9471 12.5367 88.1151 12.854C88.2925 13.162 88.5258 13.4 88.8151 13.568C89.1045 13.736 89.4311 13.82 89.7951 13.82ZM95.385 15.5V5.112H97.569V15.5H95.385ZM99.5959 15.5V5.112H101.78V15.5H99.5959ZM108.427 15.5V14.03L108.287 13.708V11.076C108.287 10.6093 108.142 10.2453 107.853 9.984C107.573 9.72267 107.139 9.592 106.551 9.592C106.149 9.592 105.753 9.65733 105.361 9.788C104.978 9.90933 104.651 10.0773 104.381 10.292L103.597 8.766C104.007 8.47667 104.502 8.25267 105.081 8.094C105.659 7.93533 106.247 7.856 106.845 7.856C107.993 7.856 108.884 8.12667 109.519 8.668C110.153 9.20933 110.471 10.054 110.471 11.202V15.5H108.427ZM106.131 15.612C105.543 15.612 105.039 15.514 104.619 15.318C104.199 15.1127 103.877 14.8373 103.653 14.492C103.429 14.1467 103.317 13.7593 103.317 13.33C103.317 12.882 103.424 12.49 103.639 12.154C103.863 11.818 104.213 11.5567 104.689 11.37C105.165 11.174 105.785 11.076 106.551 11.076H108.553V12.35H106.789C106.275 12.35 105.921 12.434 105.725 12.602C105.538 12.77 105.445 12.98 105.445 13.232C105.445 13.512 105.552 13.736 105.767 13.904C105.991 14.0627 106.294 14.142 106.677 14.142C107.041 14.142 107.367 14.058 107.657 13.89C107.946 13.7127 108.156 13.456 108.287 13.12L108.623 14.128C108.464 14.6133 108.175 14.982 107.755 15.234C107.335 15.486 106.793 15.612 106.131 15.612ZM116.899 15.612C116.237 15.612 115.667 15.472 115.191 15.192C114.715 14.912 114.351 14.4873 114.099 13.918C113.847 13.3393 113.721 12.6113 113.721 11.734C113.721 10.8473 113.852 10.1193 114.113 9.55C114.384 8.98067 114.757 8.556 115.233 8.276C115.709 7.996 116.265 7.856 116.899 7.856C117.609 7.856 118.243 8.01467 118.803 8.332C119.373 8.64933 119.821 9.09733 120.147 9.676C120.483 10.2547 120.651 10.9407 120.651 11.734C120.651 12.518 120.483 13.1993 120.147 13.778C119.821 14.3567 119.373 14.8093 118.803 15.136C118.243 15.4533 117.609 15.612 116.899 15.612ZM112.447 15.5V5.112H114.631V9.494L114.491 11.72L114.533 13.96V15.5H112.447ZM116.521 13.82C116.885 13.82 117.207 13.736 117.487 13.568C117.777 13.4 118.005 13.162 118.173 12.854C118.351 12.5367 118.439 12.1633 118.439 11.734C118.439 11.2953 118.351 10.922 118.173 10.614C118.005 10.306 117.777 10.068 117.487 9.9C117.207 9.732 116.885 9.648 116.521 9.648C116.157 9.648 115.831 9.732 115.541 9.9C115.252 10.068 115.023 10.306 114.855 10.614C114.687 10.922 114.603 11.2953 114.603 11.734C114.603 12.1633 114.687 12.5367 114.855 12.854C115.023 13.162 115.252 13.4 115.541 13.568C115.831 13.736 116.157 13.82 116.521 13.82ZM125.697 15.612C124.895 15.612 124.181 15.444 123.555 15.108C122.939 14.772 122.449 14.3147 122.085 13.736C121.731 13.148 121.553 12.4807 121.553 11.734C121.553 10.978 121.731 10.3107 122.085 9.732C122.449 9.144 122.939 8.68667 123.555 8.36C124.181 8.024 124.895 7.856 125.697 7.856C126.491 7.856 127.2 8.024 127.825 8.36C128.451 8.68667 128.941 9.13933 129.295 9.718C129.65 10.2967 129.827 10.9687 129.827 11.734C129.827 12.4807 129.65 13.148 129.295 13.736C128.941 14.3147 128.451 14.772 127.825 15.108C127.2 15.444 126.491 15.612 125.697 15.612ZM125.697 13.82C126.061 13.82 126.388 13.736 126.677 13.568C126.967 13.4 127.195 13.162 127.363 12.854C127.531 12.5367 127.615 12.1633 127.615 11.734C127.615 11.2953 127.531 10.922 127.363 10.614C127.195 10.306 126.967 10.068 126.677 9.9C126.388 9.732 126.061 9.648 125.697 9.648C125.333 9.648 125.007 9.732 124.717 9.9C124.428 10.068 124.195 10.306 124.017 10.614C123.849 10.922 123.765 11.2953 123.765 11.734C123.765 12.1633 123.849 12.5367 124.017 12.854C124.195 13.162 124.428 13.4 124.717 13.568C125.007 13.736 125.333 13.82 125.697 13.82ZM131.287 15.5V7.968H133.373V10.096L133.079 9.48C133.303 8.948 133.663 8.54667 134.157 8.276C134.652 7.996 135.254 7.856 135.963 7.856V9.872C135.87 9.86267 135.786 9.858 135.711 9.858C135.637 9.84867 135.557 9.844 135.473 9.844C134.876 9.844 134.391 10.0167 134.017 10.362C133.653 10.698 133.471 11.2253 133.471 11.944V15.5H131.287ZM141.39 15.5V14.03L141.25 13.708V11.076C141.25 10.6093 141.105 10.2453 140.816 9.984C140.536 9.72267 140.102 9.592 139.514 9.592C139.112 9.592 138.716 9.65733 138.324 9.788C137.941 9.90933 137.614 10.0773 137.344 10.292L136.56 8.766C136.97 8.47667 137.465 8.25267 138.044 8.094C138.622 7.93533 139.21 7.856 139.808 7.856C140.956 7.856 141.847 8.12667 142.482 8.668C143.116 9.20933 143.434 10.054 143.434 11.202V15.5H141.39ZM139.094 15.612C138.506 15.612 138.002 15.514 137.582 15.318C137.162 15.1127 136.84 14.8373 136.616 14.492C136.392 14.1467 136.28 13.7593 136.28 13.33C136.28 12.882 136.387 12.49 136.602 12.154C136.826 11.818 137.176 11.5567 137.652 11.37C138.128 11.174 138.748 11.076 139.514 11.076H141.516V12.35H139.752C139.238 12.35 138.884 12.434 138.688 12.602C138.501 12.77 138.408 12.98 138.408 13.232C138.408 13.512 138.515 13.736 138.73 13.904C138.954 14.0627 139.257 14.142 139.64 14.142C140.004 14.142 140.33 14.058 140.62 13.89C140.909 13.7127 141.119 13.456 141.25 13.12L141.586 14.128C141.427 14.6133 141.138 14.982 140.718 15.234C140.298 15.486 139.756 15.612 139.094 15.612ZM148.49 15.612C147.604 15.612 146.913 15.388 146.418 14.94C145.924 14.4827 145.676 13.806 145.676 12.91V6.302H147.86V12.882C147.86 13.1993 147.944 13.4467 148.112 13.624C148.28 13.792 148.509 13.876 148.798 13.876C149.144 13.876 149.438 13.7827 149.68 13.596L150.268 15.136C150.044 15.2947 149.774 15.416 149.456 15.5C149.148 15.5747 148.826 15.612 148.49 15.612ZM144.514 9.816V8.136H149.736V9.816H144.514ZM154.846 15.612C154.043 15.612 153.329 15.444 152.704 15.108C152.088 14.772 151.598 14.3147 151.234 13.736C150.879 13.148 150.702 12.4807 150.702 11.734C150.702 10.978 150.879 10.3107 151.234 9.732C151.598 9.144 152.088 8.68667 152.704 8.36C153.329 8.024 154.043 7.856 154.846 7.856C155.639 7.856 156.349 8.024 156.974 8.36C157.599 8.68667 158.089 9.13933 158.444 9.718C158.799 10.2967 158.976 10.9687 158.976 11.734C158.976 12.4807 158.799 13.148 158.444 13.736C158.089 14.3147 157.599 14.772 156.974 15.108C156.349 15.444 155.639 15.612 154.846 15.612ZM154.846 13.82C155.21 13.82 155.537 13.736 155.826 13.568C156.115 13.4 156.344 13.162 156.512 12.854C156.68 12.5367 156.764 12.1633 156.764 11.734C156.764 11.2953 156.68 10.922 156.512 10.614C156.344 10.306 156.115 10.068 155.826 9.9C155.537 9.732 155.21 9.648 154.846 9.648C154.482 9.648 154.155 9.732 153.866 9.9C153.577 10.068 153.343 10.306 153.166 10.614C152.998 10.922 152.914 11.2953 152.914 11.734C152.914 12.1633 152.998 12.5367 153.166 12.854C153.343 13.162 153.577 13.4 153.866 13.568C154.155 13.736 154.482 13.82 154.846 13.82ZM160.436 15.5V7.968H162.522V10.096L162.228 9.48C162.452 8.948 162.811 8.54667 163.306 8.276C163.8 7.996 164.402 7.856 165.112 7.856V9.872C165.018 9.86267 164.934 9.858 164.86 9.858C164.785 9.84867 164.706 9.844 164.622 9.844C164.024 9.844 163.539 10.0167 163.166 10.362C162.802 10.698 162.62 11.2253 162.62 11.944V15.5H160.436ZM173.51 15.612C172.623 15.612 171.933 15.388 171.438 14.94C170.943 14.4827 170.696 13.806 170.696 12.91V6.302H172.88V12.882C172.88 13.1993 172.964 13.4467 173.132 13.624C173.3 13.792 173.529 13.876 173.818 13.876C174.163 13.876 174.457 13.7827 174.7 13.596L175.288 15.136C175.064 15.2947 174.793 15.416 174.476 15.5C174.168 15.5747 173.846 15.612 173.51 15.612ZM169.534 9.816V8.136H174.756V9.816H169.534ZM179.865 15.612C179.063 15.612 178.349 15.444 177.723 15.108C177.107 14.772 176.617 14.3147 176.253 13.736C175.899 13.148 175.721 12.4807 175.721 11.734C175.721 10.978 175.899 10.3107 176.253 9.732C176.617 9.144 177.107 8.68667 177.723 8.36C178.349 8.024 179.063 7.856 179.865 7.856C180.659 7.856 181.368 8.024 181.993 8.36C182.619 8.68667 183.109 9.13933 183.463 9.718C183.818 10.2967 183.995 10.9687 183.995 11.734C183.995 12.4807 183.818 13.148 183.463 13.736C183.109 14.3147 182.619 14.772 181.993 15.108C181.368 15.444 180.659 15.612 179.865 15.612ZM179.865 13.82C180.229 13.82 180.556 13.736 180.845 13.568C181.135 13.4 181.363 13.162 181.531 12.854C181.699 12.5367 181.783 12.1633 181.783 11.734C181.783 11.2953 181.699 10.922 181.531 10.614C181.363 10.306 181.135 10.068 180.845 9.9C180.556 9.732 180.229 9.648 179.865 9.648C179.501 9.648 179.175 9.732 178.885 9.9C178.596 10.068 178.363 10.306 178.185 10.614C178.017 10.922 177.933 11.2953 177.933 11.734C177.933 12.1633 178.017 12.5367 178.185 12.854C178.363 13.162 178.596 13.4 178.885 13.568C179.175 13.736 179.501 13.82 179.865 13.82ZM188.689 15.612C187.98 15.612 187.341 15.4533 186.771 15.136C186.202 14.8093 185.749 14.3567 185.413 13.778C185.087 13.1993 184.923 12.518 184.923 11.734C184.923 10.9407 185.087 10.2547 185.413 9.676C185.749 9.09733 186.202 8.64933 186.771 8.332C187.341 8.01467 187.98 7.856 188.689 7.856C189.324 7.856 189.879 7.996 190.355 8.276C190.831 8.556 191.2 8.98067 191.461 9.55C191.723 10.1193 191.853 10.8473 191.853 11.734C191.853 12.6113 191.727 13.3393 191.475 13.918C191.223 14.4873 190.859 14.912 190.383 15.192C189.917 15.472 189.352 15.612 188.689 15.612ZM189.067 13.82C189.422 13.82 189.744 13.736 190.033 13.568C190.323 13.4 190.551 13.162 190.719 12.854C190.897 12.5367 190.985 12.1633 190.985 11.734C190.985 11.2953 190.897 10.922 190.719 10.614C190.551 10.306 190.323 10.068 190.033 9.9C189.744 9.732 189.422 9.648 189.067 9.648C188.703 9.648 188.377 9.732 188.087 9.9C187.798 10.068 187.565 10.306 187.387 10.614C187.219 10.922 187.135 11.2953 187.135 11.734C187.135 12.1633 187.219 12.5367 187.387 12.854C187.565 13.162 187.798 13.4 188.087 13.568C188.377 13.736 188.703 13.82 189.067 13.82ZM191.041 15.5V13.96L191.083 11.72L190.943 9.494V5.112H193.127V15.5H191.041ZM199.769 15.5V14.03L199.629 13.708V11.076C199.629 10.6093 199.484 10.2453 199.195 9.984C198.915 9.72267 198.481 9.592 197.893 9.592C197.491 9.592 197.095 9.65733 196.703 9.788C196.32 9.90933 195.993 10.0773 195.723 10.292L194.939 8.766C195.349 8.47667 195.844 8.25267 196.423 8.094C197.001 7.93533 197.589 7.856 198.187 7.856C199.335 7.856 200.226 8.12667 200.861 8.668C201.495 9.20933 201.813 10.054 201.813 11.202V15.5H199.769ZM197.473 15.612C196.885 15.612 196.381 15.514 195.961 15.318C195.541 15.1127 195.219 14.8373 194.995 14.492C194.771 14.1467 194.659 13.7593 194.659 13.33C194.659 12.882 194.766 12.49 194.981 12.154C195.205 11.818 195.555 11.5567 196.031 11.37C196.507 11.174 197.127 11.076 197.893 11.076H199.895V12.35H198.131C197.617 12.35 197.263 12.434 197.067 12.602C196.88 12.77 196.787 12.98 196.787 13.232C196.787 13.512 196.894 13.736 197.109 13.904C197.333 14.0627 197.636 14.142 198.019 14.142C198.383 14.142 198.709 14.058 198.999 13.89C199.288 13.7127 199.498 13.456 199.629 13.12L199.965 14.128C199.806 14.6133 199.517 14.982 199.097 15.234C198.677 15.486 198.135 15.612 197.473 15.612ZM204.605 18.328C204.213 18.328 203.825 18.2673 203.443 18.146C203.06 18.0247 202.747 17.8567 202.505 17.642L203.303 16.088C203.471 16.2373 203.662 16.354 203.877 16.438C204.101 16.522 204.32 16.564 204.535 16.564C204.843 16.564 205.085 16.4893 205.263 16.34C205.449 16.2 205.617 15.962 205.767 15.626L206.159 14.702L206.327 14.464L209.029 7.968H211.129L207.727 15.962C207.484 16.5687 207.204 17.0447 206.887 17.39C206.579 17.7353 206.233 17.978 205.851 18.118C205.477 18.258 205.062 18.328 204.605 18.328ZM205.893 15.794L202.533 7.968H204.787L207.391 14.268L205.893 15.794Z" fill="black"/>
<g clip-path="url(#clip0_1_447)">
<path fill-rule="evenodd" clip-rule="evenodd" d="M237.795 4.375C237.795 4.20924 237.729 4.05027 237.612 3.93306C237.495 3.81585 237.336 3.75 237.17 3.75H228.875C228.378 3.75 227.901 3.94754 227.549 4.29917C227.198 4.65081 227 5.12772 227 5.625V18.125C227 18.6223 227.198 19.0992 227.549 19.4508C227.901 19.8025 228.378 20 228.875 20H241.375C241.872 20 242.349 19.8025 242.701 19.4508C243.052 19.0992 243.25 18.6223 243.25 18.125V9.83C243.25 9.66424 243.184 9.50527 243.067 9.38806C242.95 9.27085 242.791 9.205 242.625 9.205C242.459 9.205 242.3 9.27085 242.183 9.38806C242.066 9.50527 242 9.66424 242 9.83V18.125C242 18.2908 241.934 18.4497 241.817 18.5669C241.7 18.6842 241.541 18.75 241.375 18.75H228.875C228.709 18.75 228.55 18.6842 228.433 18.5669C228.316 18.4497 228.25 18.2908 228.25 18.125V5.625C228.25 5.45924 228.316 5.30027 228.433 5.18306C228.55 5.06585 228.709 5 228.875 5H237.17C237.336 5 237.495 4.93415 237.612 4.81694C237.729 4.69973 237.795 4.54076 237.795 4.375Z" fill="black"/>
<path fill-rule="evenodd" clip-rule="evenodd" d="M247 0.625C247 0.45924 246.934 0.300269 246.817 0.183058C246.7 0.065848 246.541 0 246.375 0L240.125 0C239.959 0 239.8 0.065848 239.683 0.183058C239.566 0.300269 239.5 0.45924 239.5 0.625C239.5 0.79076 239.566 0.949732 239.683 1.06694C239.8 1.18415 239.959 1.25 240.125 1.25H244.866L234.682 11.4325C234.624 11.4906 234.578 11.5596 234.547 11.6355C234.515 11.7114 234.499 11.7928 234.499 11.875C234.499 11.9572 234.515 12.0386 234.547 12.1145C234.578 12.1904 234.624 12.2594 234.682 12.3175C234.741 12.3756 234.81 12.4217 234.886 12.4532C234.961 12.4846 235.043 12.5008 235.125 12.5008C235.207 12.5008 235.289 12.4846 235.364 12.4532C235.44 12.4217 235.509 12.3756 235.567 12.3175L245.75 2.13375V6.875C245.75 7.04076 245.816 7.19973 245.933 7.31694C246.05 7.43415 246.209 7.5 246.375 7.5C246.541 7.5 246.7 7.43415 246.817 7.31694C246.934 7.19973 247 7.04076 247 6.875V0.625Z" fill="black"/>
</g>
<defs>
<clipPath id="clip0_1_447">
<rect width="20" height="20" fill="white" transform="translate(227)"/>
</clipPath>
</defs>
</svg>
